<svg xmlns="http://www.w3.org/2000/svg" viewBox="0 0 1200 630" width="1200" height="630">
  <rect width="1200" height="630" fill="#0F172A"/>
  <rect x="0" y="0" width="8" height="630" fill="#F59E0B"/>
  <rect x="1192" y="0" width="8" height="630" fill="#F59E0B"/>
  <rect x="0" y="0" width="1200" height="8" fill="#F59E0B"/>
  <rect x="0" y="622" width="1200" height="8" fill="#F59E0B"/>
  <rect x="0" y="480" width="1200" height="4" fill="#1E293B"/>
  <rect x="100" y="492" width="80" height="3" fill="#F59E0B" opacity="0.4"/>
  <rect x="300" y="492" width="80" height="3" fill="#F59E0B" opacity="0.4"/>
  <rect x="500" y="492" width="80" height="3" fill="#F59E0B" opacity="0.4"/>
  <rect x="700" y="492" width="80" height="3" fill="#F59E0B" opacity="0.4"/>
  <rect x="900" y="492" width="80" height="3" fill="#F59E0B" opacity="0.4"/>
  <polygon points="120,80 190,120 190,200 120,240 50,200 50,120" fill="#F59E0B"/>
  <g transform="translate(62, 110)">
    <rect x="42" y="18" width="28" height="26" rx="3" fill="white"/>
    <rect x="5" y="26" width="40" height="18" rx="2" fill="white"/>
    <rect x="45" y="21" width="22" height="13" rx="2" fill="#F59E0B"/>
    <circle cx="20" cy="47" r="7" fill="#0F172A" stroke="white" stroke-width="1.5"/>
    <circle cx="20" cy="47" r="3" fill="white"/>
    <circle cx="60" cy="47" r="7" fill="#0F172A" stroke="white" stroke-width="1.5"/>
    <circle cx="60" cy="47" r="3" fill="white"/>
  </g>
  <text x="240" y="180" font-family="Arial, sans-serif" font-weight="900" font-size="72" fill="white">Your Load.</text>
  <text x="240" y="270" font-family="Arial, sans-serif" font-weight="900" font-size="72" fill="#F59E0B">Our Mission.</text>
  <text x="240" y="340" font-family="Arial, sans-serif" font-weight="400" font-size="28" fill="rgba(255,255,255,0.7)">AI-Powered. Human Driven.</text>
  <text x="240" y="420" font-family="Arial, sans-serif" font-weight="600" font-size="24" fill="#F59E0B">themanandtruck.com</text>
  <rect x="240" y="450" width="200" height="36" rx="18" fill="#1E293B"/>
  <text x="340" y="474" text-anchor="middle" font-family="Arial, sans-serif" font-size="16" fill="white">✓ Verified Drivers</text>
  <rect x="460" y="450" width="220" height="36" rx="18" fill="#1E293B"/>
  <text x="570" y="474" text-anchor="middle" font-family="Arial, sans-serif" font-size="16" fill="white">✓ AI-Powered Dispatch</text>
  <rect x="700" y="450" width="200" height="36" rx="18" fill="#1E293B"/>
  <text x="800" y="474" text-anchor="middle" font-family="Arial, sans-serif" font-size="16" fill="white">✓ 24/7 Available</text>
</svg>
